<svg xmlns="http://www.w3.org/2000/svg" viewBox="0 0 35 35"><path d="M1 1h7v7h-7zM10 1h1v1h-1zM14 1h1v1h2v-1h1v3h-1v2h1v3h1v-2h1v1h1v1h-1v1h1v-1h1v-1h1v1h1v1h1v1h-2v-1h-1v2h-1v-1h-1v2h-1v-1h-1v-1h-1v-1h-3v-1h1v-2h1v1h1v-1h-1v-2h-1v-1h1v-1h-1v1h-4v1h-1v3h1v2h-1v-1h-1v-6h2v-1h3zM20 1h1v1h-1zM27 1h7v7h-7zM2 2v5h5v-5zM22 2h1v1h2v1h-1v1h-1v-1h-1zM28 2v5h5v-5zM3 3h3v3h-3zM19 3h1v1h-1zM29 3h3v3h-3zM18 4h1v1h-1zM20 4h2v4h-1v-2h-1zM12 5h2v1h-2zM11 6h1v2h-1zM23 6h1v2h-1zM13 7h1v2h-2v-1h1zM25 7h1v3h-1v-1h-1v-1h1zM1 9h1v1h-1zM3 9h5v1h-2v1h-1v-1h-1v2h-2v-1h1zM27 9h5v2h-1v-1h-3v1h-1v1h-2v-1h1v-1h1zM8 10h2v1h-1v1h-2v-1h1zM11 10h1v1h-1zM33 10h1v1h-1zM16 11h1v1h1v2h1v2h-1v-1h-1v-1h-1v-1h-1v-1h1zM28 11h1v1h-1zM32 11h1v3h1v1h-3v1h1v1h-2v-3h2v-1h-2v-1h2zM1 12h1v1h2v-1h3v1h2v-1h5v2h-1v-1h-1v1h-1v1h-1v-1h-3v1h3v1h2v-2h1v1h1v2h-1v1h-1v1h-1v-1h-1v-1h-1v-1h-3v2h-4v-1h1v-1h-1v-1h-1zM22 12h1v1h-1zM20 13h2v1h1v1h1v1h2v-1h1v1h1v1h-1v1h-1v-1h-2v1h-1v-1h-4v-1h2v-2h-1zM23 13h1v1h-1zM26 13h1v1h-1zM29 13h1v1h-1zM3 14v1h2v-1zM15 14h1v1h-1zM24 14h1v1h-1zM27 14h1v1h-1zM16 15h1v1h-1zM4 16v1h1v-1zM7 17h2v4h1v1h1v3h-1v-2h-1v-1h-2v-1h1v-1h-2v-2h1v1h1v-1h-1zM14 17h4v1h4v1h-2v3h-1v1h-1v1h-1v1h-1v1h-1v-2h1v-2h2v-1h1v-2h-2v-1h-1v1h-1v1h-2v2h2v1h-1v1h-1v-1h-1v-1h-1v-2h1v-1h1v-1h1zM28 17h2v1h-1v4h-1v-1h-1v-2h1zM32 17h1v1h-1zM1 18h1v2h-1zM31 18h1v1h1v2h-2v-1h-1v-1h1zM3 19h1v2h-1zM16 19h1v1h-1zM23 19h1v1h1v1h-3v1h-1v-2h2zM15 20h1v1h-1zM1 21h2v1h-1v4h-1zM4 21h1v1h1v2h-1v-1h-1zM26 21h1v3h-1zM20 22h1v1h-1zM22 22h2v2h-1v-1h-1zM31 22h1v1h-1zM33 22h1v1h-1zM3 23h1v2h-1zM7 23h2v2h1v2h-1v-1h-2v-1h1v-1h-1zM19 23h1v2h-1zM21 23h1v1h1v1h1v1h1v-2h1v1h2v-1h1v1h2v1h1v1h1v1h-1v1h-1v-2h-1v2h1v1h-1v1h-1v-1h-2v1h-1v-1h-1v-2h-1v-1h-2v-1h-1v1h-1v1h-1v-2h1v-1h1zM29 23h1v1h-1zM12 24h1v1h-1zM31 24h1v1h-1zM4 25h1v1h-1zM11 25h1v2h1v5h1v-1h4v3h-1v-2h-2v1h1v1h-2v-1h-2v-1h-1v2h-2v-1h1v-1h-1v-4h1v2h1v1h1v-3h-1zM18 25h1v1h-1zM32 25h2v2h-1v-1h-1zM14 26h1v3h-1zM16 26h2v1h-1v2h3v1h3v-1h-1v-1h2v2h1v1h1v2h3v1h-5v-1h1v-1h-1v1h-2v-1h-1v-1h-2v-1h-4v-1h1zM26 26v3h3v-3zM1 27h7v7h-7zM21 27h1v1h-1zM27 27h1v1h-1zM2 28v5h5v-5zM20 28h1v1h-1zM3 29h3v3h-3zM32 29h1v1h1v1h-2zM27 31h2v1h-2zM31 31h1v2h1v1h-2v-1h-1v-1h1zM19 32h1v1h-1zM21 33h1v1h-1z"/></svg>