<svg xmlns="http://www.w3.org/2000/svg" viewBox="0 0 35 35"><path d="M1 1h7v7h-7zM9 1h6v2h-1v-1h-2v1h-1v2h-2v-1h1v-1h-1zM17 1h1v2h-1zM19 1h3v1h2v-1h2v2h-5v-1h-2zM27 1h7v7h-7zM2 2v5h5v-5zM28 2v5h5v-5zM3 3h3v3h-3zM12 3h1v1h-1zM19 3h2v1h1v1h-1v1h1v-1h1v-1h3v1h-2v1h-1v1h-1v1h-1v-1h-1v-1h-1v-1h1v-1h-1zM29 3h3v3h-3zM15 4h2v1h-1v1h-1zM11 5h1v3h-1zM13 6h2v1h-1v1h-1zM18 6h1v1h-1zM9 7h1v2h-1zM15 7h1v1h-1zM17 7h1v1h-1zM19 7h1v1h-1zM23 7h1v1h1v-1h1v2h-1v1h-1v-1h-1zM18 8h1v1h1v3h-1v-2h-1zM20 8h1v1h-1zM1 9h1v1h-1zM3 9h2v1h-1v1h2v-2h3v1h-2v1h1v1h-1v1h1v1h-1v1h-2v-1h1v-1h-1v-1h-4v-1h1v-1h1zM15 9h1v4h-2v1h1v1h-3v-1h1v-2h2zM21 9h2v1h1v1h-2v2h-2v-1h1zM27 9h1v1h-1zM30 9h1v1h-1zM32 9h2v3h-1v1h-1v-1h-1v1h-2v2h-1v-2h-1v-1h3v-1h1v-1h1zM9 10h1v1h1v1h-1v1h1v1h-2v-1h-1v-1h1zM11 10h3v1h-1v1h-1v-1h-1zM17 10h1v2h-1zM26 10h1v1h-1zM24 11h1v2h2v2h1v1h-1v1h-2v-3h-1v3h-1v1h-1v-1h-1v-1h1v-1h1v-1h-1v-1h1v-1h1zM1 13h4v1h-1v1h1v1h-1v2h-1v1h-1v-3h1v-2h-1v2h-1zM17 13h2v2h1v-1h2v1h-1v1h-1v2h-2v-1h1v-1h-1v-1h-2v-1h1zM33 13h1v1h-1zM8 14h1v1h-1zM30 14h3v2h-1v-1h-2zM7 15h1v1h-1zM10 15h2v1h-2zM8 16h1v1h-1zM12 16h2v4h-2v-1h1v-2h-1zM17 16h1v1h-1zM28 16h1v1h-1zM30 16h2v1h-2zM7 17h1v1h-1zM11 17h1v1h-1zM24 17h1v1h-1zM27 17h1v2h-1v1h-1v-1h-1v-1h2zM29 17h1v2h-1zM32 17h2v2h-1v1h-2v1h-1v-2h2zM5 18h1v1h-1zM9 18h1v1h1v1h-1v1h-1v1h1v1h-2v-1h-1v-1h1v-1h1zM15 18h2v2h-1v-1h-1zM21 18h1v1h-1zM1 19h1v1h1v-1h2v1h-1v1h-2v2h-1zM6 19h2v1h-2zM19 19h1v4h-1v1h-1v-3h-1v-1h2zM28 19h1v1h-1zM11 20h1v1h-1zM21 20h1v1h1v1h-1v2h-1zM24 20h2v1h-2zM33 20h1v4h-1v-2h-1v2h-1v2h-1v4h-1v3h-2v-1h1v-2h-2v1h1v1h-1v1h-3v-1h-1v-1h3v-1h-3v-1h-1v-1h-1v-1h-1v-1h2v1h2v1h1v-1h1v-1h-1v1h-1v-2h1v-2h1v1h1v-2h1v2h1v1h2v-2h1v-2h2zM5 21h1v1h-1zM12 21h2v1h-2zM16 21h1v1h-1zM4 22h1v1h-1zM11 22h1v1h2v1h-1v1h-1v-1h-1zM23 22h1v1h-1zM3 23h1v1h-1zM5 23h1v1h-1zM7 23h1v1h-1zM2 24h1v1h-1zM6 24h1v1h2v1h-5v-1h2zM9 24h2v1h-2zM14 24h4v1h-4zM20 24h1v1h-1zM32 24h1v1h1v2h-1v-1h-1zM1 25h1v1h-1zM18 25h1v1h-1zM21 25h1v1h-1zM9 26h4v3h-2v-1h-1v1h-1zM15 26h3v1h-2v1h-2v-1h1zM26 26v3h3v-3zM1 27h7v7h-7zM27 27h1v1h-1zM2 28v5h5v-5zM16 28h2v1h-2zM31 28h3v3h-1v-1h-2zM3 29h3v3h-3zM10 29h1v1h-1zM13 29h3v1h-3zM18 29h2v1h2v1h-2v1h-1v-1h-1zM9 30h1v1h2v1h-1v2h-2v-1h1v-1h-1zM12 30h1v1h-1zM14 31h4v1h-1v1h-1v1h-1v-1h-2v-1h1zM30 31h2v1h-2zM18 32h1v1h1v1h-2zM21 32h1v1h1v1h-2zM33 32h1v1h-1zM12 33h1v1h-1zM26 33h1v1h-1zM29 33h1v1h-1zM31 33h1v1h-1z"/></svg>